{
.appVersion = "3091";
.formatVersion = 3;
DisplayStrings = (
"！”！」！』"
);
axes = (
{
name = Weight;
tag = wght;
}
);
date = "2021-06-23 16:44:05 +0000";
familyName = "anyway-extra";
featurePrefixes = (
{
automatic = 1;
code = "languagesystem DFLT dflt;
";
name = Languagesystems;
}
);
features = (
{
code = "sub exclam.full exclam.full exclam.full by threeq;
sub asciitilde asciitilde by twoasciitilde;
sub asciitilde asciitilde asciitilde by threeasciitilde;
sub emdash emdash by doubleemdash;";
tag = liga;
}
);
fontMaster = (
{
axesValues = (
400
);
customParameters = (
{
name = typoAscender;
value = 1527;
},
{
name = typoDescender;
value = -521;
},
{
name = typoLineGap;
value = 410;
},
{
name = winAscent;
value = 1784;
},
{
name = winDescent;
value = 494;
},
{
name = hheaAscender;
value = 1784;
},
{
name = hheaDescender;
value = -494;
},
{
name = underlinePosition;
value = -205;
},
{
name = underlineThickness;
value = 102;
}
);
id = m01;
metricValues = (
{
pos = 1527;
},
{
pos = 1366;
},
{
pos = 922;
},
{
},
{
pos = -520;
}
);
name = regular;
},
{
axesValues = (
700
);
customParameters = (
{
name = typoAscender;
value = 1535;
},
{
name = typoDescender;
value = -513;
},
{
name = typoLineGap;
value = 410;
},
{
name = winAscent;
value = 1784;
},
{
name = winDescent;
value = 510;
},
{
name = hheaAscender;
value = 1784;
},
{
name = hheaDescender;
value = -510;
},
{
name = underlinePosition;
value = -205;
},
{
name = underlineThickness;
value = 102;
}
);
iconName = Bold;
id = m002;
metricValues = (
{
pos = 1535;
},
{
pos = 1366;
},
{
pos = 932;
},
{
},
{
pos = -513;
}
);
name = bold;
}
);
glyphs = (
{
export = 0;
glyphname = uni6C38;
lastChange = "2021-06-29 03:21:21 +0000";
layers = (
{
layerId = m01;
shapes = (
{
closed = 1;
nodes = (
(1020,1075,o),
(1339,923,q),
(1411,1101,l),
(1102,1237,o),
(766,1310,q),
(686,1153,l)
);
},
{
closed = 1;
nodes = (
(1589,628,o),
(1321,471,q),
(1253,596,o),
(1196,743,q),
(1196,913,l),
(409,913,l),
(409,725,l),
(1001,725,l),
(1001,-328,ls),
(1001,-410,o),
(913,-410,qs),
(657,-402,l),
(708,-590,l),
(971,-590,ls),
(1196,-590,o),
(1196,-392,qs),
(1196,378,l),
(1433,-93,o),
(1870,-428,q),
(2007,-267,l),
(1638,-23,o),
(1411,323,q),
(1710,477,o),
(1937,776,q),
(1788,901,l)
);
},
{
closed = 1;
nodes = (
(678,329,l),
(518,-62,o),
(100,-277,q),
(219,-433,l),
(717,-162,o),
(874,362,q),
(874,512,l),
(157,512,l),
(157,329,l)
);
}
);
width = 2107;
},
{
layerId = m002;
shapes = (
{
closed = 1;
nodes = (
(466,1075,o),
(785,923,q),
(857,1101,l),
(548,1237,o),
(212,1310,q),
(132,1153,l)
);
},
{
closed = 1;
nodes = (
(1035,628,o),
(767,471,q),
(699,596,o),
(642,743,q),
(642,913,l),
(-145,913,l),
(-145,725,l),
(447,725,l),
(447,-328,ls),
(447,-410,o),
(359,-410,qs),
(103,-402,l),
(154,-590,l),
(417,-590,ls),
(642,-590,o),
(642,-392,qs),
(642,378,l),
(879,-93,o),
(1316,-428,q),
(1453,-267,l),
(1084,-23,o),
(857,323,q),
(1156,477,o),
(1383,776,q),
(1234,901,l)
);
},
{
closed = 1;
nodes = (
(124,329,l),
(-36,-62,o),
(-454,-277,q),
(-335,-433,l),
(163,-162,o),
(320,362,q),
(320,512,l),
(-397,512,l),
(-397,329,l)
);
}
);
width = 1000;
}
);
unicode = 27704;
},
{
export = 0;
glyphname = uni897F;
lastChange = "2021-06-23 18:24:13 +0000";
layers = (
{
layerId = m01;
shapes = (
{
closed = 1;
nodes = (
(176,1055,l),
(176,791,l),
(-307,791,l),
(-307,-559,l),
(-112,-559,l),
(-112,-479,l),
(1116,-479,l),
(1116,-559,l),
(1311,-559,l),
(1311,791,l),
(815,791,l),
(815,1055,l),
(1420,1055,l),
(1420,1246,l),
(-420,1246,l),
(-420,1055,l)
);
},
{
closed = 1;
nodes = (
(33,-131,l),
(363,97,o),
(369,588,qs),
(369,607,l),
(623,607,l),
(623,222,ls),
(623,-4,o),
(842,-4,qs),
(1116,-4,l),
(1116,-297,l),
(-112,-297,l),
(-112,-4,l)
);
},
{
closed = 1;
nodes = (
(623,791,l),
(369,791,l),
(369,1055,l),
(623,1055,l)
);
},
{
closed = 1;
nodes = (
(176,607,l),
(176,588,ls),
(170,191,o),
(-112,7,q),
(-112,607,l)
);
},
{
closed = 1;
nodes = (
(1116,172,l),
(899,172,ls),
(815,172,o),
(815,267,qs),
(815,607,l),
(1116,607,l)
);
}
);
width = 1000;
},
{
layerId = m002;
shapes = (
{
closed = 1;
nodes = (
(176,1055,l),
(176,791,l),
(-307,791,l),
(-307,-559,l),
(-112,-559,l),
(-112,-479,l),
(1116,-479,l),
(1116,-559,l),
(1311,-559,l),
(1311,791,l),
(815,791,l),
(815,1055,l),
(1420,1055,l),
(1420,1246,l),
(-420,1246,l),
(-420,1055,l)
);
},
{
closed = 1;
nodes = (
(33,-131,l),
(363,97,o),
(369,588,qs),
(369,607,l),
(623,607,l),
(623,222,ls),
(623,-4,o),
(842,-4,qs),
(1116,-4,l),
(1116,-297,l),
(-112,-297,l),
(-112,-4,l)
);
},
{
closed = 1;
nodes = (
(623,791,l),
(369,791,l),
(369,1055,l),
(623,1055,l)
);
},
{
closed = 1;
nodes = (
(176,607,l),
(176,588,ls),
(170,191,o),
(-112,7,q),
(-112,607,l)
);
},
{
closed = 1;
nodes = (
(1116,172,l),
(899,172,ls),
(815,172,o),
(815,267,qs),
(815,607,l),
(1116,607,l)
);
}
);
width = 1000;
}
);
unicode = 35199;
},
{
glyphname = "comma-han";
lastChange = "2021-10-27 17:55:57 +0000";
layers = (
{
layerId = m002;
shapes = (
{
closed = 1;
nodes = (
(323,75,o),
(433,-41,qs),
(543,-159,o),
(612,-259,q),
(758,-134,l),
(676,-22,o),
(574,82,qs),
(460,203,o),
(329,292,q),
(200,173,l)
);
}
);
width = 1900;
},
{
layerId = m01;
shapes = (
{
closed = 1;
nodes = (
(323,81,o),
(433,-35,qs),
(543,-153,o),
(612,-253,q),
(725,-161,l),
(643,-49,o),
(541,55,qs),
(427,176,o),
(296,265,q),
(200,179,l)
);
}
);
width = 1900;
}
);
unicode = 12289;
},
{
glyphname = "period-han";
lastChange = "2021-10-27 18:04:22 +0000";
layers = (
{
layerId = m01;
shapes = (
{
closed = 1;
nodes = (
(669,-235,o),
(794,-110,o),
(794,42,cs),
(794,195,o),
(669,319,o),
(517,319,cs),
(364,319,o),
(240,195,o),
(240,42,cs),
(240,-110,o),
(364,-235,o),
(517,-235,cs)
);
},
{
closed = 1;
nodes = (
(434,-109,o),
(366,-40,o),
(366,42,cs),
(366,125,o),
(434,193,o),
(517,193,cs),
(599,193,o),
(668,125,o),
(668,42,cs),
(668,-40,o),
(599,-109,o),
(517,-109,cs)
);
}
);
width = 1900;
},
{
layerId = m002;
shapes = (
{
closed = 1;
nodes = (
(669,-235,o),
(794,-110,o),
(794,42,cs),
(794,195,o),
(669,319,o),
(517,319,cs),
(364,319,o),
(240,195,o),
(240,42,cs),
(240,-110,o),
(364,-235,o),
(517,-235,cs)
);
},
{
closed = 1;
nodes = (
(442,-94,o),
(381,-32,o),
(381,42,cs),
(381,117,o),
(442,178,o),
(517,178,cs),
(591,178,o),
(653,117,o),
(653,42,cs),
(653,-32,o),
(591,-94,o),
(517,-94,cs)
);
}
);
width = 1900;
}
);
unicode = 12290;
},
{
glyphname = exclam.full;
kernLeft = fullExclam;
kernRight = fullExclam;
lastChange = "2021-10-27 18:47:36 +0000";
layers = (
{
layerId = m01;
shapes = (
{
closed = 1;
nodes = (
(633,440,l),
(482,395,l),
(522,1336,l),
(522,1533,l),
(567,1508,l),
(270,1508,l),
(315,1533,l),
(315,1336,l),
(355,395,l),
(207,440,l)
);
},
{
pos = (30,-199);
ref = Round;
}
);
width = 1930;
},
{
layerId = m002;
shapes = (
{
closed = 1;
nodes = (
(544,440,l),
(497,395,l),
(547,1336,l),
(547,1533,l),
(592,1508,l),
(245,1508,l),
(290,1533,l),
(290,1336,l),
(340,395,l),
(293,440,l)
);
},
{
pos = (30,-199);
ref = Round;
}
);
width = 1930;
}
);
unicode = 65281;
},
{
glyphname = question.full;
lastChange = "2021-10-27 17:56:53 +0000";
layers = (
{
layerId = m01;
shapes = (
{
pos = (242,-199);
ref = Round;
},
{
attr = {
strokeHeight = 147;
strokeWidth = 170;
};
closed = 0;
nodes = (
(268,997,l),
(268,1122,o),
(322,1418,o),
(646,1418,cs),
(887,1418,o),
(1009,1244,o),
(1009,1095,cs),
(1009,846,o),
(741,760,o),
(671,648,cs),
(631,585,o),
(630,504,o),
(630,466,cs),
(630,404,l)
);
}
);
width = 1900;
},
{
layerId = m002;
shapes = (
{
pos = (242,-199);
ref = Round;
},
{
attr = {
strokeHeight = 193;
strokeWidth = 220;
};
closed = 0;
nodes = (
(268,997,l),
(268,1122,o),
(322,1418,o),
(646,1418,cs),
(887,1418,o),
(1009,1244,o),
(1009,1095,cs),
(1009,846,o),
(741,759,o),
(671,648,cs),
(631,585,o),
(630,504,o),
(630,466,cs),
(630,404,l)
);
}
);
width = 1900;
}
);
unicode = 65311;
},
{
export = 0;
glyphname = numbersign;
lastChange = "2021-06-24 16:07:45 +0000";
layers = (
{
layerId = m01;
shapes = (
{
attr = {
strokeWidth = 130;
};
closed = 0;
nodes = (
(587,1338,l),
(313,16,l)
);
},
{
attr = {
strokeWidth = 130;
};
closed = 0;
nodes = (
(1016,1338,l),
(742,16,l)
);
},
{
closed = 1;
nodes = (
(1236,825,l),
(1266,955,l),
(1072,955,l),
(1042,825,l)
);
},
{
closed = 1;
nodes = (
(339,825,l),
(369,955,l),
(124,955,l),
(94,825,l)
);
},
{
closed = 1;
nodes = (
(1209,406,l),
(1239,536,l),
(985,536,l),
(955,406,l)
);
},
{
closed = 1;
nodes = (
(252,406,l),
(282,536,l),
(97,536,l),
(67,406,l)
);
}
);
width = 1320;
},
{
layerId = m002;
shapes = (
{
closed = 1;
nodes = (
(399,659,l),
(340,369,l),
(94,369,l),
(74,256,l),
(317,256,l),
(227,-182,l),
(348,-182,l),
(436,256,l),
(748,256,l),
(657,-182,l),
(778,-182,l),
(866,256,l),
(1151,256,l),
(1171,369,l),
(889,369,l),
(948,659,l),
(1229,659,l),
(1249,772,l),
(973,772,l),
(1057,1184,l),
(938,1184,l),
(854,772,l),
(543,772,l),
(627,1184,l),
(508,1184,l),
(424,772,l),
(172,772,l),
(152,659,l)
);
},
{
closed = 1;
nodes = (
(829,659,l),
(770,369,l),
(459,369,l),
(518,659,l)
);
}
);
width = 1323;
}
);
unicode = 35;
},
{
glyphname = emdash;
lastChange = "2021-06-29 03:43:42 +0000";
layers = (
{
layerId = m01;
shapes = (
{
closed = 1;
nodes = (
(110,619,l),
(1610,619,l),
(1610,737,l),
(110,737,l)
);
}
);
width = 1720;
},
{
layerId = m002;
shapes = (
{
closed = 1;
nodes = (
(110,569,l),
(1610,569,l),
(1610,787,l),
(110,787,l)
);
}
);
width = 1720;
}
);
unicode = 8212;
},
{
glyphname = whitecornerbracketleft;
kernLeft = squareLeft;
kernRight = squareLeft;
lastChange = "2021-10-27 17:58:35 +0000";
layers = (
{
layerId = m01;
shapes = (
{
attr = {
strokeHeight = 106;
strokeWidth = 108;
};
closed = 1;
nodes = (
(1159,1295,l),
(1476,1295,l),
(1476,1585,l),
(884,1585,l),
(884,461,l),
(1159,461,l)
);
}
);
width = 1710;
},
{
layerId = m002;
shapes = (
{
attr = {
strokeHeight = 140;
strokeWidth = 148;
};
closed = 1;
nodes = (
(1149,1300,l),
(1466,1300,l),
(1466,1590,l),
(874,1590,l),
(874,466,l),
(1149,466,l)
);
}
);
width = 1729;
}
);
metricLeft = cornerbracketleft;
metricRight = cornerbracketleft;
unicode = 12302;
},
{
glyphname = whitecornerbracketright;
kernLeft = squareRight;
kernRight = squareRight;
lastChange = "2021-10-27 17:38:44 +0000";
layers = (
{
layerId = m01;
shapes = (
{
attr = {
strokeHeight = 106;
strokeWidth = 108;
};
closed = 1;
nodes = (
(557,139,l),
(240,139,l),
(240,-151,l),
(832,-151,l),
(832,973,l),
(557,973,l)
);
}
);
width = 1718;
},
{
layerId = m002;
shapes = (
{
attr = {
strokeHeight = 140;
strokeWidth = 148;
};
closed = 1;
nodes = (
(557,127,l),
(240,127,l),
(240,-163,l),
(832,-163,l),
(832,961,l),
(557,961,l)
);
}
);
width = 1718;
}
);
unicode = 12303;
},
{
glyphname = asciitilde;
kernLeft = asciitilde;
kernRight = asciitilde;
lastChange = "2021-10-27 18:45:24 +0000";
layers = (
{
layerId = m01;
shapes = (
{
attr = {
strokeHeight = 130;
strokeWidth = 150;
};
closed = 0;
nodes = (
(116,663,l),
(139,770,o),
(204,888,o),
(364,888,cs),
(564,888,o),
(608,608,o),
(808,608,cs),
(968,608,o),
(1029,787,o),
(1031,793,cs)
);
}
);
width = 1147;
},
{
layerId = m002;
shapes = (
{
attr = {
strokeHeight = 160;
strokeWidth = 180;
};
closed = 0;
nodes = (
(132,686,l),
(159,811,o),
(247,888,o),
(362,888,cs),
(546,888,o),
(620,608,o),
(806,608,cs),
(899,608,o),
(989,657,o),
(1018,793,cs)
);
}
);
width = 1149;
}
);
unicode = 126;
},
{
glyphname = Round;
lastChange = "2021-10-27 18:26:28 +0000";
layers = (
{
layerId = m01;
shapes = (
{
closed = 1;
nodes = (
(459,143,o),
(517,201,o),
(517,271,cs),
(517,341,o),
(459,399,o),
(389,399,cs),
(319,399,o),
(261,341,o),
(261,271,cs),
(261,201,o),
(319,143,o),
(389,143,cs)
);
}
);
width = 1738;
},
{
layerId = m002;
shapes = (
{
closed = 1;
nodes = (
(471,122,o),
(538,189,o),
(538,271,cs),
(538,353,o),
(471,420,o),
(389,420,cs),
(307,420,o),
(240,353,o),
(240,271,cs),
(240,189,o),
(307,122,o),
(389,122,cs)
);
}
);
width = 1738;
}
);
},
{
glyphname = corner;
lastChange = "2021-06-23 18:29:42 +0000";
layers = (
{
layerId = m01;
shapes = (
{
closed = 1;
nodes = (
(1043,405,l),
(968,360,l),
(968,1589,l),
(905,1512,l),
(1518,1512,l),
(1473,1437,l),
(1473,1705,l),
(1518,1630,l),
(755,1630,l),
(830,1705,l),
(830,360,l),
(755,405,l)
);
}
);
width = 1653;
},
{
layerId = m002;
shapes = (
{
closed = 1;
nodes = (
(1043,405,l),
(998,360,l),
(998,1527,l),
(953,1482,l),
(1518,1482,l),
(1473,1437,l),
(1473,1705,l),
(1518,1660,l),
(755,1660,l),
(800,1705,l),
(800,360,l),
(755,405,l)
);
}
);
width = 1653;
}
);
},
{
glyphname = curve;
lastChange = "2021-06-23 18:59:57 +0000";
layers = (
{
layerId = m01;
shapes = (
{
attr = {
strokeHeight = 31;
strokeWidth = 169;
};
closed = 0;
nodes = (
(1429,1635,l),
(1242,1374,o),
(1156,1043,o),
(1156,710,cs),
(1156,368,o),
(1239,52,o),
(1429,-215,cs)
);
}
);
width = 1574;
},
{
layerId = m002;
shapes = (
{
attr = {
strokeHeight = 41;
strokeWidth = 220;
};
closed = 0;
nodes = (
(1455,1635,l),
(1264,1366,o),
(1182,1039,o),
(1182,710,cs),
(1182,368,o),
(1265,52,o),
(1455,-215,cs)
);
}
);
width = 1529;
}
);
},
{
glyphname = doubleemdash;
lastChange = "2021-06-29 03:43:19 +0000";
layers = (
{
layerId = m01;
shapes = (
{
closed = 1;
nodes = (
(110,619,l),
(2910,619,l),
(2910,737,l),
(110,737,l)
);
}
);
width = 3020;
},
{
layerId = m002;
shapes = (
{
closed = 1;
nodes = (
(110,569,l),
(2910,569,l),
(2910,787,l),
(110,787,l)
);
}
);
width = 3020;
}
);
},
{
glyphname = fullcomma;
lastChange = "2021-10-27 16:24:15 +0000";
layers = (
{
layerId = m01;
shapes = (
{
closed = 1;
nodes = (
(459,116,o),
(517,174,o),
(517,244,cs),
(517,315,o),
(459,372,o),
(389,372,cs),
(318,372,o),
(261,315,o),
(261,244,cs),
(261,174,o),
(318,116,o),
(389,116,cs)
);
},
{
closed = 1;
nodes = (
(323,-242,l),
(279,-219,l),
(421,-163,o),
(551,-55,o),
(551,161,cs),
(551,366,o),
(421,372,o),
(388,372,c),
(339,276,l),
(371,227,o),
(421,218,o),
(421,130,cs),
(421,-64,o),
(297,-76,o),
(213,-128,c),
(194,-87,l)
);
}
);
width = 1900;
},
{
layerId = m002;
shapes = (
{
closed = 1;
nodes = (
(471,122,o),
(538,189,o),
(538,271,cs),
(538,353,o),
(471,420,o),
(389,420,cs),
(307,420,o),
(240,353,o),
(240,271,cs),
(240,189,o),
(307,122,o),
(389,122,cs)
);
},
{
closed = 1;
nodes = (
(313,-294,l),
(261,-268,l),
(426,-203,o),
(578,-77,o),
(578,174,cs),
(578,413,o),
(426,420,o),
(388,420,c),
(331,308,l),
(368,251,o),
(426,240,o),
(426,138,cs),
(426,-88,o),
(282,-102,o),
(185,-162,c),
(163,-114,l)
);
}
);
width = 1900;
}
);
},
{
glyphname = leftone;
lastChange = "2021-06-23 18:30:33 +0000";
layers = (
{
layerId = m01;
shapes = (
{
closed = 1;
nodes = (
(710,-277,l),
(651,-254,l),
(855,-175,l),
(822,-204,l),
(395,761,l),
(394,679,l),
(831,1644,l),
(864,1621,l),
(621,1694,l),
(710,1717,l),
(250,679,l),
(250,761,l)
);
}
);
width = 1000;
},
{
layerId = m002;
shapes = (
{
closed = 1;
nodes = (
(684,-277,l),
(625,-254,l),
(881,-175,l),
(848,-204,l),
(421,761,l),
(420,679,l),
(857,1644,l),
(890,1621,l),
(625,1694,l),
(684,1717,l),
(224,679,l),
(224,761,l)
);
}
);
width = 1000;
}
);
},
{
glyphname = threeasciitilde;
kernLeft = asciitilde;
kernRight = asciitilde;
lastChange = "2021-10-27 16:50:06 +0000";
layers = (
{
layerId = m01;
shapes = (
{
attr = {
strokeHeight = 130;
strokeWidth = 150;
};
closed = 0;
nodes = (
(114,718,l),
(116,724,o),
(176,888,o),
(336,888,cs),
(536,888,o),
(554,608,o),
(754,608,cs),
(954,608,o),
(972,888,o),
(1172,888,cs),
(1372,888,o),
(1391,608,o),
(1591,608,cs),
(1791,608,o),
(1815,888,o),
(2015,888,cs),
(2215,888,o),
(2240,608,o),
(2440,608,cs),
(2600,608,o),
(2661,787,o),
(2663,793,cs)
);
}
);
width = 2779;
},
{
layerId = m002;
shapes = (
{
attr = {
strokeHeight = 160;
strokeWidth = 180;
};
closed = 0;
nodes = (
(129,718,l),
(131,724,o),
(191,888,o),
(351,888,cs),
(551,888,o),
(569,608,o),
(769,608,cs),
(969,608,o),
(987,888,o),
(1187,888,cs),
(1387,888,o),
(1406,608,o),
(1606,608,cs),
(1806,608,o),
(1834,888,o),
(2034,888,cs),
(2234,888,o),
(2263,608,o),
(2463,608,cs),
(2623,608,o),
(2684,777,o),
(2686,783,cs)
);
}
);
width = 2814;
}
);
metricLeft = asciitilde;
metricRight = asciitilde;
},
{
glyphname = threeq;
kernLeft = fullExclam;
kernRight = fullExclam;
lastChange = "2021-10-27 18:26:57 +0000";
layers = (
{
layerId = m002;
shapes = (
{
closed = 1;
nodes = (
(544,440,l),
(497,395,l),
(547,1336,l),
(547,1533,l),
(592,1508,l),
(245,1508,l),
(290,1533,l),
(290,1336,l),
(340,395,l),
(293,440,l)
);
},
{
pos = (30,-199);
ref = Round;
},
{
closed = 1;
nodes = (
(1544,350,l),
(1497,305,l),
(1547,1416,l),
(1547,1633,l),
(1592,1608,l),
(1245,1608,l),
(1290,1633,l),
(1290,1416,l),
(1340,305,l),
(1293,350,l)
);
},
{
pos = (1030,-289);
ref = Round;
},
{
pos = (2030,-379);
ref = Round;
},
{
closed = 1;
nodes = (
(2544,260,l),
(2497,215,l),
(2547,1486,l),
(2547,1723,l),
(2592,1698,l),
(2245,1698,l),
(2290,1723,l),
(2290,1486,l),
(2340,215,l),
(2293,260,l)
);
}
);
width = 3930;
},
{
layerId = m01;
shapes = (
{
closed = 1;
nodes = (
(633,440,l),
(482,395,l),
(522,1336,l),
(522,1533,l),
(567,1508,l),
(270,1508,l),
(315,1533,l),
(315,1336,l),
(355,395,l),
(207,440,l)
);
},
{
pos = (990,-259);
ref = Round;
},
{
closed = 1;
nodes = (
(1593,380,l),
(1442,335,l),
(1485,1386,l),
(1485,1593,l),
(1530,1568,l),
(1227,1568,l),
(1272,1593,l),
(1272,1386,l),
(1315,335,l),
(1167,380,l)
);
},
{
pos = (30,-199);
ref = Round;
},
{
pos = (1950,-309);
ref = Round;
},
{
closed = 1;
nodes = (
(2553,320,l),
(2402,275,l),
(2452,1386,l),
(2452,1653,l),
(2497,1628,l),
(2180,1628,l),
(2225,1653,l),
(2225,1386,l),
(2275,275,l),
(2127,320,l)
);
}
);
width = 3850;
}
);
metricLeft = exclam.full;
metricRight = exclam.full;
},
{
glyphname = twoasciitilde;
kernLeft = asciitilde;
kernRight = asciitilde;
lastChange = "2021-10-27 16:50:13 +0000";
layers = (
{
layerId = m01;
shapes = (
{
attr = {
strokeHeight = 130;
strokeWidth = 150;
};
closed = 0;
nodes = (
(114,718,l),
(116,724,o),
(176,888,o),
(336,888,cs),
(536,888,o),
(554,608,o),
(754,608,cs),
(954,608,o),
(972,888,o),
(1172,888,cs),
(1372,888,o),
(1391,608,o),
(1591,608,cs),
(1751,608,o),
(1812,787,o),
(1814,793,cs)
);
}
